<svg width="40" height="40" viewBox="0 0 40 40" fill="none" xmlns="http://www.w3.org/2000/svg">
<path d="M20 36.6667C16.7778 36.6667 14.0278 35.5278 11.75 33.25C9.4722 30.9722 8.33331 28.2222 8.33331 25V15C8.33331 11.7778 9.4722 9.02777 11.75 6.75C14.0278 4.47222 16.7778 3.33333 20 3.33333C23.2222 3.33333 25.9722 4.47222 28.25 6.75C30.5278 9.02777 31.6666 11.7778 31.6666 15V25C31.6666 28.2222 30.5278 30.9722 28.25 33.25C25.9722 35.5278 23.2222 36.6667 20 36.6667ZM21.6666 15H28.3333C28.3333 13 27.7014 11.2361 26.4375 9.70833C25.1736 8.18055 23.5833 7.22222 21.6666 6.83333V15ZM11.6666 15H18.3333V6.83333C16.4166 7.22222 14.8264 8.18055 13.5625 9.70833C12.2986 11.2361 11.6666 13 11.6666 15ZM20 33.3333C22.3055 33.3333 24.2708 32.5208 25.8958 30.8958C27.5208 29.2708 28.3333 27.3056 28.3333 25V18.3333H11.6666V25C11.6666 27.3056 12.4791 29.2708 14.1041 30.8958C15.7291 32.5208 17.6944 33.3333 20 33.3333Z" fill="white"/>
</svg>
